<!DOCTYPE svg PUBLIC "-//W3C//DTD SVG 1.1//EN" "http://www.w3.org/Graphics/SVG/1.1/DTD/svg11.dtd">
<!-- Uploaded to: SVG Repo, www.svgrepo.com, Transformed by: SVG Repo Mixer Tools -->
<svg width="800px" height="800px" viewBox="0 0 48 48" xmlns="http://www.w3.org/2000/svg" fill="#000000" stroke="#000000">
<g id="SVGRepo_bgCarrier" stroke-width="0"/>
<g id="SVGRepo_tracerCarrier" stroke-linecap="round" stroke-linejoin="round" stroke="#CCCCCC" stroke-width="2.4">
<defs>
<style>.a{fill:none;stroke:#ffffff;stroke-linecap:round;stroke-linejoin:round;}</style>
</defs>
<path class="a" d="M40.5,5.5H7.5a2,2,0,0,0-2,2h0v33a2,2,0,0,0,2,2h33a2,2,0,0,0,2-2h0V7.5a2,2,0,0,0-2-2Z"/>
<path class="a" d="M5.5,24h7.899v1.2966a4,4,0,1,0,3,0V24H24"/>
<path class="a" d="M24,42.5V34.601h1.2966a4,4,0,1,0,0-3H24V24"/>
<path class="a" d="M42.5,24H34.601V22.7034a4,4,0,1,0-3,0V24H24"/>
<path class="a" d="M24,5.5v7.899H22.7034a4,4,0,1,0,0,3H24V24"/>
</g>
<g id="SVGRepo_iconCarrier">
<defs>
<style>.a{fill:none;stroke:#ffffff;stroke-linecap:round;stroke-linejoin:round;}</style>
</defs>
<path class="a" d="M40.5,5.5H7.5a2,2,0,0,0-2,2h0v33a2,2,0,0,0,2,2h33a2,2,0,0,0,2-2h0V7.5a2,2,0,0,0-2-2Z"/>
<path class="a" d="M5.5,24h7.899v1.2966a4,4,0,1,0,3,0V24H24"/>
<path class="a" d="M24,42.5V34.601h1.2966a4,4,0,1,0,0-3H24V24"/>
<path class="a" d="M42.5,24H34.601V22.7034a4,4,0,1,0-3,0V24H24"/>
<path class="a" d="M24,5.5v7.899H22.7034a4,4,0,1,0,0,3H24V24"/>
</g>
</svg>